<svg width="26" height="26" viewBox="0 0 26 26" fill="none" xmlns="http://www.w3.org/2000/svg">
<path d="M13 15.0583L15.0583 17.1167C15.275 17.3153 15.5325 17.4146 15.8307 17.4146C16.1283 17.4146 16.3764 17.3153 16.575 17.1167C16.7917 16.9 16.9 16.6425 16.9 16.3443C16.9 16.0467 16.7917 15.7986 16.575 15.6L14.5167 13.5417L16.575 11.4833C16.7917 11.2667 16.9 11.0092 16.9 10.7109C16.9 10.4134 16.7917 10.1653 16.575 9.96667C16.3764 9.75 16.1283 9.64167 15.8307 9.64167C15.5325 9.64167 15.275 9.75 15.0583 9.96667L13 12.025L10.9417 9.96667C10.7431 9.75 10.495 9.64167 10.1974 9.64167C9.89913 9.64167 9.64166 9.75 9.42499 9.96667C9.22638 10.1653 9.12708 10.4134 9.12708 10.7109C9.12708 11.0092 9.22638 11.2667 9.42499 11.4833L11.4833 13.5417L9.42499 15.6C9.22638 15.7986 9.12708 16.0467 9.12708 16.3443C9.12708 16.6425 9.22638 16.9 9.42499 17.1167C9.64166 17.3153 9.89913 17.4146 10.1974 17.4146C10.495 17.4146 10.7431 17.3153 10.9417 17.1167L13 15.0583ZM7.58333 22.75C6.98749 22.75 6.47761 22.538 6.05366 22.1141C5.62899 21.6894 5.41666 21.1792 5.41666 20.5833V6.5C5.10972 6.5 4.85225 6.39636 4.64425 6.18908C4.43697 5.98108 4.33333 5.72361 4.33333 5.41667C4.33333 5.10972 4.43697 4.85225 4.64425 4.64425C4.85225 4.43697 5.10972 4.33333 5.41666 4.33333H9.75C9.75 4.02639 9.854 3.76892 10.062 3.56092C10.2693 3.35364 10.5264 3.25 10.8333 3.25H15.1667C15.4736 3.25 15.7311 3.35364 15.9391 3.56092C16.1464 3.76892 16.25 4.02639 16.25 4.33333H20.5833C20.8903 4.33333 21.1474 4.43697 21.3547 4.64425C21.5627 4.85225 21.6667 5.10972 21.6667 5.41667C21.6667 5.72361 21.5627 5.98108 21.3547 6.18908C21.1474 6.39636 20.8903 6.5 20.5833 6.5V20.5833C20.5833 21.1792 20.3714 21.6894 19.9474 22.1141C19.5227 22.538 19.0125 22.75 18.4167 22.75H7.58333Z" fill="#F24E1E"/>
</svg>
