<svg width="24" height="24" viewBox="0 0 24 24" fill="none" xmlns="http://www.w3.org/2000/svg">
<path d="M12 21C10.9333 21 9.925 20.825 8.975 20.475C8.025 20.125 7.16667 19.6417 6.4 19.025L5.125 20.3C4.925 20.5 4.69167 20.5957 4.425 20.587C4.15833 20.579 3.925 20.475 3.725 20.275C3.525 20.075 3.425 19.8373 3.425 19.562C3.425 19.2873 3.525 19.05 3.725 18.85L4.975 17.6C4.35833 16.8333 3.875 15.9707 3.525 15.012C3.175 14.054 3 13.05 3 12C3 9.5 3.87933 7.375 5.638 5.625C7.396 3.875 9.51667 3 12 3H19C19.55 3 20.021 3.19567 20.413 3.587C20.8043 3.979 21 4.45 21 5V12C21 14.4833 20.125 16.6043 18.375 18.363C16.625 20.121 14.5 21 12 21ZM10.675 16.875L15.85 12.25C16.0167 12.1 16.0667 11.9207 16 11.712C15.9333 11.504 15.7833 11.3833 15.55 11.35L11.5 10.95L13.925 7.625C13.9917 7.54167 14.0207 7.454 14.012 7.362C14.004 7.27067 13.9667 7.18333 13.9 7.1C13.8167 7.01667 13.721 6.975 13.613 6.975C13.5043 6.975 13.4083 7.01667 13.325 7.1L8.175 11.725C8.00833 11.875 7.95833 12.054 8.025 12.262C8.09167 12.4707 8.24167 12.5917 8.475 12.625L12.525 13.025L10.075 16.35C10.025 16.4333 10 16.521 10 16.613C10 16.7043 10.0417 16.7917 10.125 16.875C10.2083 16.9583 10.3 17 10.4 17C10.5 17 10.5917 16.9583 10.675 16.875Z" fill="#33C5FF"/>
</svg>
