<svg width="16" height="14" viewBox="0 0 16 14" fill="none" xmlns="http://www.w3.org/2000/svg">
<g clip-path="url(#clip0_120_2)">
<path d="M7.06669 13.0667L1.06669 7.81666C0.533354 7.35 0.533354 6.62083 1.06669 6.15416L7.06669 0.904165C7.60002 0.437498 8.43335 0.437498 8.96669 0.904165L14.9667 6.15416C15.5 6.62083 15.5 7.35 14.9667 7.81666L8.96669 13.0667C8.43335 13.5333 7.56669 13.5333 7.06669 13.0667Z" fill="#1296BF"/>
<path d="M7.20001 9.5375C7.20001 9.45 7.23335 9.3625 7.26668 9.275C7.30001 9.1875 7.36668 9.12917 7.43335 9.07084C7.50001 9.0125 7.60001 8.95417 7.70001 8.925C7.80001 8.89583 7.90001 8.86667 8.03335 8.86667C8.16668 8.86667 8.26668 8.89583 8.36668 8.925C8.46668 8.95417 8.56668 9.0125 8.63335 9.07084C8.70001 9.12917 8.76668 9.1875 8.80001 9.275C8.83335 9.3625 8.86668 9.45 8.86668 9.5375C8.86668 9.625 8.83335 9.7125 8.80001 9.8C8.76668 9.8875 8.70001 9.94583 8.63335 10.0042C8.56668 10.0625 8.46668 10.1208 8.36668 10.15C8.26668 10.1792 8.16668 10.2083 8.03335 10.2083C7.90001 10.2083 7.80001 10.1792 7.70001 10.15C7.60001 10.1208 7.53335 10.0625 7.43335 10.0042C7.36668 9.94583 7.30001 9.8875 7.26668 9.8C7.23335 9.7125 7.20001 9.65417 7.20001 9.5375ZM8.60001 8.19584H7.40001L7.23335 3.79167H8.76668L8.60001 8.19584Z" fill="white"/>
</g>
<defs>
<clipPath id="clip0_120_2">
<rect width="16" height="14" fill="white"/>
</clipPath>
</defs>
</svg>
