<svg width="22" height="22" viewBox="0 0 22 22" fill="none" xmlns="http://www.w3.org/2000/svg">
<path d="M11.2527 2.09524C6.19275 2.09524 2.09525 6.20191 2.09525 11.2619C2.09525 16.3219 6.19275 20.4286 11.2527 20.4286C16.3219 20.4286 20.4286 16.3219 20.4286 11.2619C20.4286 6.20191 16.3219 2.09524 11.2527 2.09524ZM14.9286 14.9286C14.8438 15.0136 14.743 15.081 14.6322 15.127C14.5213 15.173 14.4024 15.1966 14.2823 15.1966C14.1623 15.1966 14.0434 15.173 13.9325 15.127C13.8216 15.081 13.7209 15.0136 13.6361 14.9286L10.6202 11.9127C10.5336 11.8278 10.4647 11.7266 10.4175 11.6149C10.3703 11.5032 10.3458 11.3832 10.3452 11.2619V7.59524C10.3452 7.09107 10.7577 6.67857 11.2619 6.67857C11.7661 6.67857 12.1786 7.09107 12.1786 7.59524V10.8861L14.9286 13.6361C15.2861 13.9936 15.2861 14.5711 14.9286 14.9286Z" fill="#fff"/>
</svg>
