<svg width="21" height="21" viewBox="0 0 21 21" fill="none" xmlns="http://www.w3.org/2000/svg">
<path d="M19.1406 7.91875L15.4 4.24375L16.3406 3.30312C16.6906 2.95312 17.11 2.77812 17.5989 2.77812C18.0877 2.77812 18.4995 2.95312 18.8344 3.30312L20.0594 4.55C20.3948 4.88541 20.5625 5.29375 20.5625 5.775C20.5625 6.25625 20.3948 6.66458 20.0594 7L19.1406 7.91875ZM4.375 20.7375C3.89375 20.7375 3.48163 20.5663 3.13863 20.2239C2.79563 19.8815 2.62442 19.4693 2.625 18.9875V6.7375C2.625 6.25625 2.7965 5.84412 3.1395 5.50112C3.4825 5.15812 3.89433 4.98691 4.375 4.9875H12.1844L6.89063 10.2812C6.64271 10.5292 6.45313 10.8135 6.32188 11.1344C6.19063 11.4552 6.125 11.7906 6.125 12.1406V15.4875C6.125 15.9687 6.2965 16.3809 6.6395 16.7239C6.9825 17.0669 7.39434 17.2381 7.875 17.2375H11.2219C11.5719 17.2375 11.9073 17.1719 12.2281 17.0406C12.549 16.9094 12.8333 16.7198 13.0813 16.4719L18.375 11.1562V18.9875C18.375 19.4687 18.2035 19.8809 17.8605 20.2239C17.5175 20.5669 17.1057 20.7381 16.625 20.7375H4.375ZM8.75 15.4875C8.50209 15.4875 8.29413 15.4038 8.12613 15.2364C7.95813 15.069 7.87442 14.861 7.875 14.6125V12.4906C7.875 12.2573 7.91875 12.0347 8.00625 11.823C8.09375 11.6112 8.21771 11.4255 8.37813 11.2656L14.1531 5.49062L17.8938 9.16562L12.0969 14.9625C11.9365 15.1229 11.7507 15.2507 11.5395 15.3457C11.3283 15.4408 11.1058 15.4881 10.8719 15.4875H8.75Z" fill="white"/>
</svg>
