<svg width="250" height="250" viewBox="0 0 250 250" fill="none" xmlns="http://www.w3.org/2000/svg">
<path d="M125 62.5C117.274 62.5 109.722 64.791 103.298 69.0832C96.8743 73.3755 91.8675 79.4762 88.911 86.6139C85.9544 93.7517 85.1809 101.606 86.6881 109.183C88.1953 116.761 91.9157 123.721 97.3787 129.184C102.842 134.647 109.802 138.367 117.379 139.874C124.957 141.382 132.811 140.608 139.949 137.652C147.086 134.695 153.187 129.688 157.479 123.264C161.772 116.841 164.063 109.288 164.063 101.562C164.063 91.2025 159.947 81.2668 152.621 73.9411C145.296 66.6155 135.36 62.5 125 62.5Z" fill="#F57B0A"/>
<path d="M125 15.625C103.368 15.625 82.2212 22.0397 64.2346 34.058C46.2479 46.0763 32.2291 63.1583 23.9507 83.144C15.6724 103.13 13.5064 125.121 17.7267 146.338C21.9469 167.555 32.3639 187.043 47.6602 202.34C62.9566 217.636 82.4454 228.053 103.662 232.273C124.879 236.494 146.87 234.328 166.856 226.049C186.842 217.771 203.924 203.752 215.942 185.765C227.96 167.779 234.375 146.632 234.375 125C234.342 96.0021 222.808 68.2014 202.303 47.6967C181.799 27.1921 153.998 15.6581 125 15.625ZM187.438 194.734C187.282 184.487 183.107 174.711 175.812 167.512C168.517 160.314 158.686 156.269 148.438 156.25H101.563C91.314 156.269 81.4832 160.314 74.1882 167.512C66.8933 174.711 62.7182 184.487 62.5626 194.734C48.3951 182.084 38.4042 165.429 33.9128 146.974C29.4214 128.519 30.6414 109.135 37.4113 91.3895C44.1811 73.6436 56.1815 58.3724 71.8233 47.5982C87.4651 36.824 106.011 31.0549 125.004 31.0549C143.997 31.0549 162.543 36.824 178.185 47.5982C193.826 58.3724 205.827 73.6436 212.597 91.3895C219.366 109.135 220.586 128.519 216.095 146.974C211.604 165.429 201.605 182.084 187.438 194.734Z" fill="#F57B0A"/>
</svg>
