<svg width="25" height="25" viewBox="0 0 25 25" fill="none" xmlns="http://www.w3.org/2000/svg">
<g clip-path="url(#clip0_202_38)">
<path d="M12.5 24C18.8513 24 24 18.8513 24 12.5C24 6.14873 18.8513 1 12.5 1C6.14873 1 1 6.14873 1 12.5C1 18.8513 6.14873 24 12.5 24Z" stroke="white" stroke-width="1.5" stroke-linecap="round" stroke-linejoin="round"/>
<path d="M7.23294 12.5455V12.4943C7.23863 11.9517 7.29544 11.5199 7.4034 11.1989C7.51135 10.8778 7.66476 10.6179 7.86363 10.419C8.06249 10.2202 8.30113 10.0369 8.57954 9.86932C8.74715 9.76705 8.89772 9.64631 9.03124 9.5071C9.16476 9.36506 9.26988 9.2017 9.34658 9.01705C9.42613 8.83239 9.4659 8.62784 9.4659 8.40341C9.4659 8.125 9.40056 7.88352 9.26988 7.67898C9.13919 7.47443 8.96448 7.31676 8.74573 7.20597C8.52698 7.09517 8.28408 7.03977 8.01704 7.03977C7.78408 7.03977 7.55965 7.08807 7.34374 7.18466C7.12783 7.28125 6.94743 7.43324 6.80255 7.64062C6.65766 7.84801 6.57385 8.11932 6.55113 8.45455H5.47726C5.49999 7.97159 5.62499 7.55824 5.85226 7.21449C6.08238 6.87074 6.38493 6.60795 6.75993 6.42614C7.13777 6.24432 7.55681 6.15341 8.01704 6.15341C8.51704 6.15341 8.95169 6.25284 9.32101 6.4517C9.69317 6.65057 9.9801 6.9233 10.1818 7.26989C10.3864 7.61648 10.4886 8.01136 10.4886 8.45455C10.4886 8.76705 10.4403 9.04972 10.3438 9.30256C10.25 9.5554 10.1136 9.78125 9.93465 9.98011C9.75851 10.179 9.54544 10.3551 9.29544 10.5085C9.04544 10.6648 8.84516 10.8295 8.69459 11.0028C8.54402 11.1733 8.43465 11.3764 8.36647 11.6122C8.29829 11.848 8.26135 12.142 8.25567 12.4943V12.5455H7.23294ZM16.69 12.5455V12.4943C16.6957 11.9517 16.7525 11.5199 16.8604 11.1989C16.9684 10.8778 17.1218 10.6179 17.3207 10.419C17.5195 10.2202 17.7582 10.0369 18.0366 9.86932C18.2042 9.76705 18.3548 9.64631 18.4883 9.5071C18.6218 9.36506 18.7269 9.2017 18.8036 9.01705C18.8832 8.83239 18.9229 8.62784 18.9229 8.40341C18.9229 8.125 18.8576 7.88352 18.7269 7.67898C18.5962 7.47443 18.4215 7.31676 18.2028 7.20597C17.984 7.09517 17.7411 7.03977 17.4741 7.03977C17.2411 7.03977 17.0167 7.08807 16.8008 7.18466C16.5849 7.28125 16.4045 7.43324 16.2596 7.64062C16.1147 7.84801 16.0309 8.11932 16.0082 8.45455H14.9343C14.957 7.97159 15.082 7.55824 15.3093 7.21449C15.5394 6.87074 15.842 6.60795 16.217 6.42614C16.5948 6.24432 17.0138 6.15341 17.4741 6.15341C17.9741 6.15341 18.4087 6.25284 18.7781 6.4517C19.1502 6.65057 19.4371 6.9233 19.6388 7.26989C19.8434 7.61648 19.9457 8.01136 19.9457 8.45455C19.9457 8.76705 19.8974 9.04972 19.8008 9.30256C19.707 9.5554 19.5707 9.78125 19.3917 9.98011C19.2156 10.179 19.0025 10.3551 18.7525 10.5085C18.5025 10.6648 18.3022 10.8295 18.1516 11.0028C18.0011 11.1733 17.8917 11.3764 17.8235 11.6122C17.7553 11.848 17.7184 12.142 17.7127 12.4943V12.5455H16.69Z" fill="white"/>
<circle cx="8" cy="15" r="2" fill="white"/>
<circle cx="17" cy="15" r="2" fill="white"/>
<path d="M12 19H13" stroke="white" stroke-linecap="round"/>
</g>
<defs>
<clipPath id="clip0_202_38">
<rect width="25" height="25" fill="white"/>
</clipPath>
</defs>
</svg>
