<svg width="26" height="26" viewBox="0 0 26 26" fill="none" xmlns="http://www.w3.org/2000/svg">
<path d="M13.5 21.1111C13.988 21.1111 14.3973 20.9458 14.7279 20.6151C15.0575 20.2856 15.2222 19.8769 15.2222 19.3889V14.2222H20.3889C20.8769 14.2222 21.2856 14.0569 21.6151 13.7262C21.9458 13.3967 22.1111 12.988 22.1111 12.5C22.1111 12.012 21.9458 11.6027 21.6151 11.2721C21.2856 10.9425 20.8769 10.7778 20.3889 10.7778H15.2222V5.61111C15.2222 5.12315 15.0575 4.71383 14.7279 4.38317C14.3973 4.05365 13.988 3.88889 13.5 3.88889C13.012 3.88889 12.6033 4.05365 12.2738 4.38317C11.9431 4.71383 11.7778 5.12315 11.7778 5.61111V10.7778H6.61111C6.12315 10.7778 5.71383 10.9425 5.38317 11.2721C5.05365 11.6027 4.88889 12.012 4.88889 12.5C4.88889 12.988 5.05365 13.3967 5.38317 13.7262C5.71383 14.0569 6.12315 14.2222 6.61111 14.2222H11.7778V19.3889C11.7778 19.8769 11.9431 20.2856 12.2738 20.6151C12.6033 20.9458 13.012 21.1111 13.5 21.1111Z" fill="#F8F8F8"/>
</svg>
