<svg width="63" height="51" viewBox="0 0 63 51" fill="none" xmlns="http://www.w3.org/2000/svg">
<path d="M61 0H2C0.895431 0 0 0.89543 0 2V25.5V49C0 50.1046 0.89543 51 2 51H61C62.1046 51 63 50.1046 63 49V22.0817C63 20.6334 61.5083 19.6652 60.1854 20.2551L31.6346 32.9873C29.8639 33.7769 30.1399 36.3716 32.0371 36.771L35.7038 37.5429C38.0556 38.038 37.6952 41.5 35.2918 41.5H14.8534C12.7498 41.5 12.0758 38.6935 13.9588 37.7559C20.9571 34.2715 31.5134 29.0905 39.5 25.5C46.9946 22.1307 58.0913 17.5254 61.7674 16.0077C62.5174 15.6981 63 14.9702 63 14.1589V2C63 0.89543 62.1046 0 61 0Z" fill="#FF8B06"/>
</svg>
